<svg width="295" height="105" viewBox="0 0 295 105" fill="none" xmlns="http://www.w3.org/2000/svg">
<path d="M44.1527 20.6524C48.7987 22.2164 35.1827 29.8984 43.6927 35.0504C48.4767 37.9484 58.9187 24.8384 64.1627 21.8944C68.6247 19.4104 76.4447 18.9044 80.4007 27.5524C85.4147 38.5004 81.0447 66.9744 62.9667 78.4284C44.7047 89.9284 21.7047 84.0864 13.7467 66.1924C4.50066 45.3544 28.0987 15.1784 44.1527 20.6524ZM49.7187 50.3224C53.0767 57.8664 71.3387 48.0224 67.1527 37.4424C64.4387 30.5884 46.5447 43.1924 49.7187 50.3224Z" fill="url(#paint0_angular_131_9)"/>
<path d="M104.726 51.7288C104.726 49.5445 104.941 47.4766 105.371 45.5251C105.8 43.5736 106.454 41.7833 107.331 40.1541C108.208 38.5069 109.309 37.0567 110.634 35.8035C111.977 34.5323 113.553 33.4939 115.361 32.6882C116.65 32.1153 117.966 31.6946 119.309 31.426C120.651 31.1575 122.048 31.0232 123.498 31.0232C124.411 31.0232 125.315 31.059 126.21 31.1306C127.124 31.2022 127.992 31.3455 128.815 31.5603C129.657 31.7572 130.445 32.0437 131.179 32.4197C131.913 32.7778 132.575 33.2522 133.166 33.843C133.417 34.0579 133.658 34.1653 133.891 34.1653C133.981 34.1653 134.079 34.1026 134.187 33.9773C134.294 33.852 134.392 33.7087 134.482 33.5476C134.571 33.3686 134.652 33.1895 134.724 33.0105C134.813 32.8315 134.885 32.6882 134.938 32.5808C135.082 32.2764 135.279 32.1243 135.529 32.1243C135.744 32.1243 135.905 32.178 136.013 32.2854C136.12 32.3928 136.192 32.5271 136.228 32.6882V34.1653C136.228 34.595 136.219 35.0515 136.201 35.5349C136.183 36.0004 136.156 36.4659 136.12 36.9314C136.102 37.379 136.084 37.8176 136.066 38.2473C136.049 38.6591 136.04 39.0172 136.04 39.3215V43.699C136.04 44.0391 135.932 44.2092 135.717 44.2092C135.61 44.2092 135.493 44.1018 135.368 43.887C135.243 43.6721 135.118 43.4215 134.992 43.135C134.867 42.8306 134.75 42.5352 134.643 42.2488C134.536 41.9444 134.446 41.7117 134.375 41.5505C134.07 40.6912 133.685 39.8586 133.22 39.053C132.772 38.2294 132.289 37.4775 131.77 36.7971C131.268 36.1168 130.749 35.526 130.212 35.0247C129.675 34.5055 129.174 34.1116 128.708 33.843C127.777 33.3059 126.846 32.9389 125.915 32.7419C124.984 32.545 124.178 32.4465 123.498 32.4465C122.746 32.4465 122.093 32.5002 121.538 32.6077C121 32.7151 120.517 32.8583 120.087 33.0374C119.676 33.2164 119.318 33.4133 119.013 33.6282C118.709 33.8251 118.44 34.0221 118.208 34.219C117.044 35.1858 116.059 36.2332 115.253 37.3611C114.448 38.4711 113.785 39.599 113.266 40.7449C112.747 41.8907 112.344 43.0097 112.058 44.1018C111.771 45.1939 111.556 46.1876 111.413 47.0828C111.288 47.9779 111.207 48.7478 111.171 49.3923C111.153 50.019 111.145 50.4397 111.145 50.6545C111.145 50.9589 111.153 51.4871 111.171 52.239C111.207 52.991 111.288 53.8682 111.413 54.8708C111.556 55.8735 111.78 56.9656 112.084 58.1472C112.389 59.311 112.819 60.4657 113.374 61.6116C113.946 62.7574 114.663 63.8495 115.522 64.8879C116.399 65.9084 117.465 66.7857 118.718 67.5198C119.685 68.1106 120.678 68.5134 121.699 68.7283C122.737 68.9252 123.802 69.0237 124.895 69.0237C125.378 69.0237 125.852 68.9789 126.318 68.8894C126.783 68.7999 127.186 68.6746 127.526 68.5134C127.884 68.3344 128.171 68.1285 128.386 67.8958C128.601 67.6451 128.708 67.3676 128.708 67.0632V55.8645C128.708 55.5601 128.583 55.3274 128.332 55.1663C128.081 55.0051 127.759 54.8798 127.365 54.7903C126.989 54.7008 126.577 54.6381 126.13 54.6023C125.682 54.5665 125.262 54.5128 124.868 54.4412C124.492 54.3695 124.178 54.2711 123.928 54.1458C123.677 54.0204 123.552 53.8324 123.552 53.5818C123.552 53.3132 123.731 53.1252 124.089 53.0178C124.465 52.9104 124.868 52.8567 125.297 52.8567C125.53 52.8567 125.87 52.8925 126.318 52.9641C126.765 53.0178 127.419 53.0984 128.278 53.2058C129.138 53.2953 130.248 53.3938 131.608 53.5012C132.987 53.5907 134.715 53.6713 136.792 53.7429C136.935 53.7429 137.15 53.7608 137.436 53.7966C137.74 53.8324 138.036 53.8861 138.322 53.9578C138.609 54.0294 138.859 54.1278 139.074 54.2532C139.289 54.3606 139.396 54.4949 139.396 54.656C139.396 54.8708 139.2 55.0499 138.806 55.1931C138.412 55.3184 137.964 55.4259 137.463 55.5154C136.962 55.587 136.469 55.6497 135.986 55.7034C135.52 55.7392 135.198 55.775 135.019 55.8108C134.822 56.0077 134.697 56.151 134.643 56.2405C134.589 56.33 134.562 56.4553 134.562 56.6165V66.6604C134.562 66.8931 134.733 67.0095 135.073 67.0095C135.377 67.0095 135.664 66.9648 135.932 66.8752C136.201 66.7857 136.46 66.6962 136.711 66.6067C136.979 66.4993 137.239 66.4008 137.49 66.3113C137.758 66.2218 138.036 66.177 138.322 66.177C138.465 66.177 138.591 66.2039 138.698 66.2576C138.824 66.2934 138.886 66.3918 138.886 66.553C138.886 66.7141 138.815 66.8663 138.671 67.0095C138.528 67.1528 138.358 67.2781 138.161 67.3855C137.982 67.4929 137.803 67.5824 137.624 67.6541C137.445 67.7257 137.32 67.7794 137.248 67.8152C135.422 68.8178 133.488 69.5608 131.447 70.0442C129.424 70.5276 127.365 70.7693 125.271 70.7693C123.928 70.7693 122.549 70.6619 121.135 70.447C119.738 70.2322 118.369 69.892 117.026 69.4265C115.701 68.961 114.43 68.3612 113.212 67.6272C112.013 66.8931 110.948 66.0069 110.017 64.9685C109.211 64.0554 108.486 63.0618 107.841 61.9875C107.197 60.9133 106.642 59.8033 106.176 58.6575C105.711 57.5116 105.353 56.3479 105.102 55.1663C104.851 53.9846 104.726 52.8388 104.726 51.7288ZM144.392 41.4163C144.392 40.5211 144.535 39.6169 144.821 38.7039C145.126 37.7908 145.528 36.9314 146.03 36.1257C146.531 35.3022 147.113 34.5592 147.775 33.8967C148.456 33.2164 149.172 32.6703 149.924 32.2585C150.64 31.8468 151.365 31.5961 152.099 31.5066C152.851 31.4171 153.657 31.3723 154.516 31.3723C155.483 31.3723 156.432 31.4887 157.363 31.7214C158.294 31.9363 159.198 32.2764 160.075 32.7419C160.147 32.7957 160.281 32.8852 160.478 33.0105C160.675 33.1358 160.89 33.288 161.123 33.467C161.373 33.6461 161.624 33.8341 161.875 34.031C162.125 34.21 162.349 34.3801 162.546 34.5413C162.618 34.6129 162.68 34.6487 162.734 34.6487C162.752 34.6487 162.797 34.6129 162.868 34.5413C162.922 34.4696 162.985 34.3622 163.056 34.219C163.146 34.0579 163.235 33.8967 163.325 33.7356C163.414 33.5566 163.495 33.3954 163.566 33.2522C163.656 33.0911 163.719 32.9836 163.754 32.9299C163.79 32.8404 163.835 32.7598 163.889 32.6882C163.96 32.6166 164.005 32.5808 164.023 32.5808C164.023 32.5629 164.059 32.554 164.13 32.554C164.238 32.554 164.318 32.5987 164.372 32.6882C164.426 32.7598 164.462 32.8494 164.479 32.9568C164.515 33.0642 164.533 33.1806 164.533 33.3059C164.533 33.4133 164.533 33.5028 164.533 33.5745V33.7625C164.533 33.7983 164.524 33.8699 164.506 33.9773C164.506 34.0847 164.497 34.21 164.479 34.3533C164.462 34.4786 164.444 34.595 164.426 34.7024C164.426 34.8098 164.417 34.8814 164.399 34.9172V41.5505C164.399 41.6938 164.336 41.7922 164.211 41.8459C164.086 41.8997 163.978 41.9265 163.889 41.9265C163.692 41.9265 163.575 41.8907 163.54 41.8191C163.504 41.7296 163.45 41.5774 163.378 41.3625C163.181 40.8971 163.047 40.4226 162.976 39.9392C162.922 39.4379 162.797 38.9277 162.6 38.4084C162.403 37.8176 162.071 37.182 161.606 36.5017C161.14 35.8035 160.603 35.1589 159.995 34.5681C159.386 33.9773 158.75 33.4849 158.088 33.0911C157.425 32.6972 156.79 32.5002 156.181 32.5002C155.053 32.5002 154.185 32.5808 153.576 32.7419C152.663 33.0105 151.893 33.4491 151.267 34.0579C150.658 34.6487 150.094 35.3201 149.575 36.072C149.431 36.2869 149.297 36.5644 149.172 36.9045C149.047 37.2268 148.939 37.5759 148.85 37.9519C148.778 38.31 148.715 38.6591 148.662 38.9993C148.626 39.3394 148.608 39.6169 148.608 39.8318C148.608 40.6912 148.787 41.47 149.145 42.1682C149.521 42.8665 150.004 43.4931 150.595 44.0481C151.186 44.5852 151.848 45.0686 152.583 45.4983C153.334 45.9101 154.086 46.2681 154.838 46.5725C155.483 46.8411 156.145 47.1007 156.826 47.3513C157.524 47.602 158.204 47.8616 158.867 48.1301C159.547 48.3987 160.192 48.6941 160.8 49.0164C161.427 49.3386 161.982 49.7056 162.465 50.1174C163.074 50.6008 163.674 51.2006 164.265 51.9167C164.855 52.615 165.384 53.3848 165.849 54.2263C166.333 55.0499 166.717 55.9093 167.004 56.8044C167.29 57.6996 167.434 58.5769 167.434 59.4363C167.434 61.1013 167.138 62.6052 166.547 63.948C165.974 65.2908 165.169 66.4366 164.13 67.3855C163.11 68.3165 161.901 69.0416 160.505 69.5608C159.108 70.0621 157.604 70.3127 155.993 70.3127C155.044 70.3127 154.122 70.268 153.227 70.1785C152.35 70.071 151.508 69.892 150.703 69.6414C149.897 69.3907 149.136 69.0416 148.42 68.594C147.704 68.1464 147.023 67.5735 146.379 66.8752C146.307 66.7857 146.209 66.732 146.083 66.7141C145.976 66.6962 145.887 66.6873 145.815 66.6873C145.511 66.6873 145.296 66.7678 145.17 66.929C145.045 67.0901 144.938 67.2781 144.848 67.4929C144.777 67.6899 144.687 67.8689 144.58 68.03C144.472 68.1912 144.284 68.2717 144.016 68.2717L144.714 60.8865C144.75 60.6537 144.777 60.3762 144.794 60.054C144.812 59.7317 144.857 59.5168 144.929 59.4094C144.982 59.1588 145.081 59.0334 145.224 59.0334C145.439 59.0334 145.591 59.1677 145.681 59.4363C145.788 59.7406 145.878 60.045 145.949 60.3494C146.021 60.6358 146.083 60.9223 146.137 61.2087C146.191 61.4952 146.245 61.7638 146.298 62.0144C146.37 62.2651 146.459 62.4889 146.567 62.6858C146.979 63.4198 147.373 64.0733 147.749 64.6462C148.142 65.2192 148.572 65.7473 149.038 66.2307C149.521 66.7141 150.076 67.1528 150.703 67.5466C151.329 67.9405 152.09 68.3075 152.985 68.6477C153.54 68.8446 154.069 68.961 154.57 68.9968C155.071 69.0147 155.528 69.0237 155.939 69.0237C156.441 69.0237 156.942 68.9342 157.443 68.7551C157.945 68.5582 158.544 68.2628 159.243 67.8689C160.263 67.2602 161.078 66.5351 161.687 65.6936C162.295 64.8342 162.6 63.76 162.6 62.4709C162.6 61.5579 162.43 60.7074 162.089 59.9197C161.767 59.1319 161.319 58.3979 160.747 57.7175C159.923 56.8044 159.135 56.0972 158.383 55.5959C157.631 55.0767 156.888 54.665 156.154 54.3606C155.438 54.0562 154.722 53.7966 154.006 53.5818C153.29 53.3669 152.556 53.0984 151.804 52.7761C151.07 52.4539 150.318 52.0242 149.548 51.4871C148.778 50.95 147.972 50.198 147.131 49.2312C145.305 47.0828 144.392 44.4778 144.392 41.4163ZM201.862 54.7634C202.256 54.7634 202.453 54.5933 202.453 54.2532C202.453 54.092 202.444 53.9667 202.426 53.8772C202.319 53.537 202.167 53.0447 201.97 52.4001C201.773 51.7556 201.549 51.0126 201.298 50.1711C201.048 49.3297 200.77 48.4345 200.466 47.4856C200.179 46.5188 199.884 45.552 199.58 44.5852C199.293 43.6184 199.007 42.6874 198.72 41.7922C198.434 40.8792 198.183 40.0556 197.968 39.3215C197.932 39.2857 197.879 39.2231 197.807 39.1335C197.753 39.044 197.664 38.9993 197.539 38.9993C197.377 38.9993 197.252 39.1514 197.163 39.4558C197.001 39.9034 196.778 40.539 196.491 41.3625C196.223 42.1861 195.918 43.0992 195.578 44.1018C195.238 45.1044 194.88 46.1428 194.504 47.217C194.146 48.2913 193.806 49.2939 193.483 50.2249C193.161 51.1379 192.884 51.9347 192.651 52.615C192.418 53.2774 192.266 53.7161 192.194 53.9309C192.159 53.9846 192.141 54.0562 192.141 54.1458C192.141 54.5575 192.418 54.7634 192.973 54.7634H201.862ZM179.733 69.4802C179.733 69.1759 179.895 68.9968 180.217 68.9431C180.521 68.8894 180.987 68.8088 181.613 68.7014C182.777 68.4508 183.744 67.9405 184.514 67.1707C185.284 66.4008 185.928 65.5235 186.447 64.5388C186.966 63.5362 187.396 62.4978 187.736 61.4236C188.094 60.3494 188.435 59.3826 188.757 58.5232L195.632 39.6975C195.793 39.232 195.936 38.9097 196.062 38.7307C196.205 38.5338 196.321 38.3726 196.411 38.2473C196.5 38.1041 196.572 37.943 196.625 37.7639C196.679 37.5849 196.706 37.2716 196.706 36.824C196.706 36.627 196.679 36.448 196.625 36.2869C196.572 36.1257 196.509 35.9646 196.438 35.8035C196.384 35.6244 196.33 35.4364 196.276 35.2395C196.223 35.0247 196.196 34.7651 196.196 34.4607C196.661 34.407 197.1 34.3354 197.512 34.2458C197.941 34.1384 198.335 33.9594 198.693 33.7087C198.89 33.5655 199.06 33.3775 199.204 33.1448C199.347 32.8941 199.499 32.6524 199.66 32.4197C199.821 32.1869 200.009 31.99 200.224 31.8289C200.439 31.6498 200.725 31.5603 201.083 31.5603C201.119 31.5603 201.155 31.5693 201.191 31.5872C201.227 31.6051 201.263 31.6588 201.298 31.7483C201.334 31.8378 201.442 32.1869 201.621 32.7957C201.818 33.4044 202.068 34.219 202.373 35.2395C202.695 36.2421 203.053 37.4058 203.447 38.7307C203.859 40.0556 204.288 41.47 204.736 42.9739C205.201 44.4599 205.676 46.0085 206.159 47.6199C206.66 49.2312 207.153 50.8246 207.636 52.4001C208.12 53.9578 208.576 55.4706 209.006 56.9387C209.453 58.3889 209.865 59.7138 210.241 60.9133C210.617 62.1129 210.939 63.1602 211.208 64.0554C211.477 64.9327 211.674 65.5772 211.799 65.989C211.996 66.5798 212.309 67.099 212.739 67.5466C213.168 67.9942 213.643 68.2986 214.162 68.4597C214.681 68.6388 215.147 68.7372 215.559 68.7551C215.988 68.773 216.346 68.7909 216.633 68.8088C216.937 68.8267 217.17 68.8894 217.331 68.9968C217.492 69.1042 217.573 69.328 217.573 69.6682C217.573 69.7756 217.537 69.8652 217.465 69.9368C217.394 69.9905 217.304 70.0352 217.197 70.071C217.089 70.1069 216.973 70.1337 216.848 70.1516C216.74 70.1516 216.651 70.1606 216.579 70.1785H214.162C214.019 70.1785 213.867 70.1785 213.706 70.1785C213.544 70.1606 213.294 70.1516 212.954 70.1516C212.631 70.1337 212.184 70.1248 211.611 70.1248C211.038 70.1069 210.277 70.0979 209.328 70.0979C208.326 70.0979 207.341 70.1158 206.374 70.1516C205.425 70.1695 204.458 70.1964 203.474 70.2322H202.104C201.961 70.2322 201.8 70.2232 201.621 70.2053C201.442 70.2053 201.271 70.1874 201.11 70.1516C200.949 70.1158 200.815 70.0531 200.708 69.9636C200.6 69.8741 200.546 69.7488 200.546 69.5876C200.546 69.4444 200.618 69.328 200.761 69.2385C200.904 69.149 201.075 69.0774 201.271 69.0237C201.468 68.97 201.674 68.9342 201.889 68.9163C202.104 68.8805 202.283 68.8536 202.426 68.8357C203.035 68.7462 203.626 68.6477 204.199 68.5403C204.772 68.415 205.336 68.2986 205.891 68.1912C206.302 68.0658 206.508 67.842 206.508 67.5198C206.508 67.484 206.508 67.4303 206.508 67.3586C206.508 67.2691 206.49 67.1886 206.455 67.1169L203.527 57.5027C203.492 57.3595 203.393 57.1983 203.232 57.0193C203.089 56.8403 202.91 56.7507 202.695 56.7507H191.792C191.541 56.7507 191.371 56.7955 191.281 56.885C191.192 56.9566 191.111 57.0372 191.04 57.1267L189.643 60.8865C189.41 61.4952 189.249 62.0502 189.16 62.5515C189.07 63.0349 189.025 63.5004 189.025 63.948C189.025 64.4851 189.079 65.0759 189.187 65.7205C189.276 66.365 189.491 66.8663 189.831 67.2244C190.171 67.5824 190.565 67.851 191.013 68.03C191.478 68.2091 191.971 68.3344 192.49 68.406C193.009 68.4597 193.483 68.5134 193.913 68.5671C194.343 68.6208 194.692 68.7014 194.96 68.8088C195.247 68.8984 195.39 69.0774 195.39 69.3459C195.39 69.5071 195.336 69.6772 195.229 69.8562C195.139 70.0352 194.916 70.1427 194.558 70.1785H193.403C192.347 70.1427 191.317 70.1069 190.314 70.071C189.33 70.0173 188.3 69.9905 187.226 69.9905C186.044 69.9905 184.97 70.0263 184.003 70.0979C183.055 70.1516 182.097 70.1785 181.13 70.1785H180.781C180.083 70.1785 179.733 69.9457 179.733 69.4802ZM224.448 67.7615V35.1589C224.448 34.9083 224.367 34.7024 224.206 34.5413C224.045 34.3801 223.839 34.2548 223.588 34.1653C223.356 34.0579 223.105 33.9862 222.836 33.9504C222.568 33.9146 222.326 33.8967 222.111 33.8967H221.01C220.76 33.8967 220.554 33.8967 220.393 33.8967C220.231 33.8967 220.079 33.8788 219.936 33.843C219.721 33.843 219.614 33.7804 219.614 33.655C219.614 33.4581 219.721 33.3328 219.936 33.2791C220.527 33.1716 221.064 33.0911 221.547 33.0374C222.049 32.9836 222.541 32.9478 223.024 32.9299C223.508 32.8941 223.991 32.8762 224.475 32.8762C224.976 32.8583 225.522 32.8225 226.113 32.7688C226.202 32.7688 226.399 32.7598 226.704 32.7419C227.026 32.7061 227.402 32.6703 227.832 32.6345C228.279 32.5987 228.745 32.5629 229.228 32.5271C229.729 32.4734 230.195 32.4286 230.625 32.3928C231.072 32.3391 231.457 32.2944 231.779 32.2585C232.102 32.2227 232.316 32.1959 232.424 32.178C232.943 32.1064 233.507 32.0527 234.116 32.0168C234.742 31.9631 235.36 31.9363 235.969 31.9363C237.831 31.9363 239.514 32.169 241.018 32.6345C242.539 33.1 243.837 33.7625 244.912 34.6218C245.986 35.4812 246.809 36.5107 247.382 37.7102C247.973 38.9097 248.269 40.2436 248.269 41.7117C248.269 42.8754 248.143 43.9765 247.893 45.0149C247.642 46.0354 247.15 47.038 246.416 48.0227C246.057 48.4882 245.673 48.891 245.261 49.2312C244.867 49.5535 244.455 49.8489 244.025 50.1174C243.614 50.386 243.184 50.6366 242.736 50.8694C242.289 51.1021 241.841 51.3617 241.394 51.6482C241.268 51.7198 241.206 51.8451 241.206 52.0242C241.206 52.06 241.25 52.1674 241.34 52.3464C242.557 53.8324 243.739 55.3453 244.885 56.885C246.031 58.4247 247.141 60.0092 248.215 61.6384C248.716 62.3367 249.271 63.0439 249.88 63.76C250.507 64.4762 251.133 65.1475 251.76 65.7742C252.1 66.1143 252.449 66.4366 252.807 66.741C253.165 67.0453 253.577 67.3407 254.042 67.6272C254.526 67.8958 255.09 68.1554 255.734 68.406C256.379 68.6388 257.149 68.8446 258.044 69.0237C258.277 69.0953 258.474 69.1759 258.635 69.2654C258.814 69.337 258.903 69.4534 258.903 69.6145C258.903 69.9368 258.796 70.1069 258.581 70.1248C258.545 70.1606 258.465 70.1785 258.339 70.1785C258.232 70.1785 258.098 70.1785 257.937 70.1785H257.238C256.88 70.1785 256.451 70.1785 255.949 70.1785C255.466 70.1606 254.947 70.1516 254.392 70.1516C253.854 70.1337 253.299 70.1158 252.727 70.0979C252.154 70.08 251.625 70.0621 251.142 70.0442C250.426 70.0084 249.755 69.9457 249.128 69.8562C248.501 69.7667 247.875 69.516 247.248 69.1042C246.836 68.9073 246.407 68.5671 245.959 68.0837C245.511 67.5824 245.091 67.0453 244.697 66.4724C244.213 65.8279 243.694 65.1117 243.139 64.324C242.602 63.5362 242.056 62.7395 241.501 61.9338C240.946 61.1282 240.4 60.3404 239.863 59.5706C239.344 58.8007 238.86 58.1025 238.413 57.4758C237.983 56.8313 237.616 56.2942 237.312 55.8645C237.025 55.4169 236.837 55.1215 236.748 54.9783C236.676 54.8708 236.542 54.6829 236.345 54.4143C236.166 54.1458 235.969 53.8772 235.754 53.6086C235.539 53.3222 235.324 53.0715 235.109 52.8567C234.895 52.6239 234.733 52.4986 234.626 52.4807C234.196 52.427 233.695 52.3912 233.122 52.3733C232.567 52.3554 232.057 52.3464 231.591 52.3464H230.893C230.696 52.3464 230.499 52.4001 230.302 52.5076C230.123 52.5971 229.998 52.7582 229.926 52.991V65.6667C229.926 65.8816 229.935 66.1322 229.953 66.4187C229.989 66.7052 230.034 66.9827 230.087 67.2512C230.141 67.5198 230.213 67.7704 230.302 68.0032C230.392 68.218 230.499 68.3702 230.625 68.4597C230.857 68.6208 231.251 68.7641 231.806 68.8894C232.361 68.9968 232.943 69.0863 233.552 69.158C234.178 69.2117 234.769 69.2564 235.324 69.2922C235.897 69.328 236.3 69.3459 236.533 69.3459C236.694 69.3459 236.801 69.4176 236.855 69.5608C236.909 69.704 236.936 69.8472 236.936 69.9905C236.936 70.1874 236.891 70.3038 236.801 70.3396C236.73 70.3933 236.577 70.4202 236.345 70.4202C236.058 70.4202 235.602 70.4023 234.975 70.3665C234.348 70.3486 233.686 70.3217 232.988 70.2859C232.307 70.268 231.672 70.2411 231.081 70.2053C230.508 70.1874 230.123 70.1785 229.926 70.1785H221.601C221.529 70.1785 221.413 70.1785 221.252 70.1785C221.091 70.1606 220.912 70.1516 220.715 70.1516C220.518 70.1337 220.321 70.1248 220.124 70.1248C219.927 70.1069 219.757 70.0979 219.614 70.0979C219.417 70.0621 219.256 70.0442 219.13 70.0442C219.023 70.0263 218.969 69.9189 218.969 69.7219C218.969 69.5966 219.005 69.5071 219.077 69.4534C219.148 69.3818 219.327 69.3012 219.614 69.2117C219.954 69.1401 220.384 69.1042 220.903 69.1042C221.44 69.0863 221.959 69.0416 222.46 68.97C222.962 68.8984 223.4 68.782 223.776 68.6208C224.17 68.4418 224.394 68.1554 224.448 67.7615ZM229.926 33.7625V51.0037C229.926 51.1827 229.98 51.3349 230.087 51.4602C230.195 51.5855 230.311 51.6482 230.437 51.6482H231.511C232.119 51.6482 232.764 51.6213 233.444 51.5676C234.125 51.5139 234.671 51.4423 235.083 51.3528C235.566 51.2275 236.049 51.0305 236.533 50.762C237.016 50.4755 237.473 50.1622 237.902 49.822C238.332 49.4639 238.735 49.088 239.111 48.6941C239.487 48.2823 239.818 47.8884 240.104 47.5125C240.409 47.0828 240.677 46.6889 240.91 46.3308C241.143 45.9727 241.34 45.5968 241.501 45.2029C241.68 44.809 241.814 44.3704 241.904 43.887C242.011 43.3857 242.092 42.7948 242.146 42.1145C242.146 41.1656 242.074 40.3241 241.931 39.5901C241.787 38.8381 241.555 38.1578 241.232 37.5491C240.928 36.9403 240.543 36.3764 240.078 35.8572C239.612 35.338 239.057 34.8367 238.413 34.3533C238.198 34.21 237.947 34.0668 237.661 33.9236C237.392 33.7804 237.106 33.655 236.801 33.5476C236.497 33.4223 236.184 33.3149 235.861 33.2253C235.539 33.1358 235.235 33.0642 234.948 33.0105C234.787 32.9747 234.519 32.9568 234.143 32.9568C233.767 32.9389 233.462 32.9299 233.229 32.9299C232.979 32.9299 232.666 32.9389 232.29 32.9568C231.914 32.9568 231.547 32.9836 231.188 33.0374C230.848 33.0911 230.553 33.1806 230.302 33.3059C230.052 33.4133 229.926 33.5655 229.926 33.7625ZM276.789 36.0183V67.1707C276.789 67.5824 277.013 67.8958 277.46 68.1106C277.926 68.3254 278.454 68.4866 279.045 68.594C279.654 68.7014 280.253 68.782 280.844 68.8357C281.435 68.8715 281.865 68.9163 282.133 68.97C282.294 69.1669 282.384 69.3101 282.402 69.3997C282.438 69.4713 282.456 69.5876 282.456 69.7488C282.456 69.9099 282.402 70.0442 282.294 70.1516C282.205 70.259 282.089 70.3396 281.945 70.3933C281.802 70.4649 281.641 70.5186 281.462 70.5544C281.301 70.5903 281.149 70.6082 281.005 70.6082C280.647 70.6082 280.101 70.5723 279.367 70.5007C278.633 70.4291 277.854 70.3486 277.031 70.259C276.225 70.1874 275.437 70.1158 274.667 70.0442C273.916 69.9726 273.334 69.9368 272.922 69.9368C272.224 69.9368 271.552 69.9457 270.908 69.9636C270.263 69.9815 269.592 70.0531 268.894 70.1785C268.75 70.1785 268.518 70.2053 268.195 70.259C267.891 70.3306 267.551 70.4023 267.175 70.4739C266.799 70.5455 266.423 70.6082 266.047 70.6619C265.689 70.7335 265.393 70.7693 265.161 70.7693C264.982 70.7693 264.847 70.6887 264.758 70.5276C264.668 70.3844 264.624 70.268 264.624 70.1785C264.624 69.9457 264.749 69.7577 265 69.6145C265.268 69.4713 265.492 69.3818 265.671 69.3459C265.778 69.2922 265.975 69.2296 266.262 69.158C266.566 69.0863 266.897 69.0147 267.255 68.9431C267.613 68.8536 267.954 68.773 268.276 68.7014C268.616 68.6119 268.885 68.5313 269.082 68.4597C269.368 68.3881 269.619 68.3165 269.833 68.2449C270.048 68.1554 270.227 68.0479 270.371 67.9226C270.514 67.7794 270.621 67.6003 270.693 67.3855C270.764 67.1528 270.8 66.8573 270.8 66.4993V37.0925C270.8 36.9493 270.791 36.7971 270.773 36.636C270.756 36.4569 270.72 36.2958 270.666 36.1526C270.612 36.0094 270.532 35.893 270.424 35.8035C270.317 35.7139 270.165 35.6692 269.968 35.6692H263.952C263.146 35.6692 262.457 35.7408 261.884 35.884C261.311 36.0094 260.783 36.2153 260.3 36.5017C259.709 36.8061 259.109 37.2179 258.5 37.7371C257.91 38.2563 257.453 38.8023 257.131 39.3752C257.077 39.4648 257.023 39.5901 256.97 39.7512C256.934 39.9124 256.88 40.0735 256.809 40.2346C256.737 40.3958 256.656 40.539 256.567 40.6643C256.477 40.7896 256.37 40.8523 256.245 40.8523C256.173 40.8523 256.092 40.7986 256.003 40.6912C255.913 40.5837 255.824 40.4495 255.734 40.2883C255.645 40.1093 255.564 39.9213 255.493 39.7244C255.439 39.5095 255.412 39.3036 255.412 39.1067C255.412 38.7128 255.493 38.301 255.654 37.8713C255.833 37.4417 256.048 36.9851 256.298 36.5017C256.549 36.0183 256.818 35.4991 257.104 34.9441C257.39 34.3712 257.65 33.7445 257.883 33.0642V32.5808C257.883 32.4555 257.91 32.3212 257.963 32.178C258.053 32.0168 258.178 31.9273 258.339 31.9094C258.518 31.8736 258.706 31.8557 258.903 31.8557C259.064 31.8557 259.199 31.9094 259.306 32.0168C259.414 32.1064 259.521 32.2138 259.628 32.3391C259.736 32.4644 259.852 32.5987 259.978 32.7419C260.121 32.8673 260.291 32.9568 260.488 33.0105C260.703 33.0642 261.114 33.1358 261.723 33.2253C262.332 33.297 263.164 33.3686 264.221 33.4402C265.295 33.5118 266.602 33.5745 268.142 33.6282C269.681 33.6819 271.499 33.7087 273.593 33.7087C274.095 33.7087 274.667 33.6998 275.312 33.6819C275.957 33.6461 276.619 33.6103 277.299 33.5745C277.998 33.5387 278.687 33.5118 279.367 33.4939C280.048 33.4581 280.674 33.4402 281.247 33.4402C281.695 33.4402 282.097 33.4581 282.456 33.4939C282.814 33.5297 283.199 33.5834 283.61 33.655C283.825 33.6908 284.058 33.7266 284.309 33.7625C284.559 33.7983 284.81 33.8341 285.061 33.8699C285.311 33.8878 285.544 33.9057 285.759 33.9236C285.974 33.9415 286.144 33.9504 286.269 33.9504C286.609 33.9504 286.779 33.7625 286.779 33.3865C286.779 33.1895 286.842 33.0015 286.967 32.8225C287.128 32.6256 287.343 32.3928 287.612 32.1243C287.88 31.8557 288.113 31.7214 288.31 31.7214C288.453 31.7214 288.605 31.8199 288.767 32.0168C288.946 32.2138 289.116 32.4555 289.277 32.7419C289.456 33.0105 289.617 33.288 289.76 33.5745C289.921 33.843 290.056 34.0579 290.163 34.219C290.288 34.5055 290.378 34.8546 290.432 35.2664C290.485 35.6602 290.548 35.9646 290.62 36.1794C290.691 36.3406 290.843 36.6002 291.076 36.9583C291.327 37.3163 291.577 37.7013 291.828 38.113C292.079 38.5069 292.303 38.8918 292.5 39.2678C292.714 39.6438 292.822 39.9392 292.822 40.1541C292.822 40.6195 292.616 40.8523 292.204 40.8523C291.953 40.8523 291.649 40.7091 291.291 40.4226C290.951 40.1361 290.584 39.8049 290.19 39.429C289.814 39.053 289.429 38.677 289.035 38.301C288.641 37.9071 288.274 37.6028 287.934 37.3879C287.701 37.2447 287.379 37.0836 286.967 36.9045C286.573 36.7255 286.153 36.5465 285.705 36.3674C285.257 36.1884 284.819 36.0362 284.389 35.9109C283.959 35.7856 283.592 35.705 283.288 35.6692C282.805 35.5797 282.303 35.5349 281.784 35.5349C281.265 35.517 280.764 35.5081 280.28 35.5081H278.75C278.696 35.5081 278.562 35.517 278.347 35.5349C278.15 35.5528 277.935 35.5886 277.702 35.6423C277.469 35.6781 277.255 35.7319 277.058 35.8035C276.879 35.8572 276.789 35.9288 276.789 36.0183Z" fill="white"/>
<defs>
<radialGradient id="paint0_angular_131_9" cx="0" cy="0" r="1" gradientUnits="userSpaceOnUse" gradientTransform="translate(46.9992 52.1785) rotate(90) scale(32.1785 35.3351)">
<stop stop-color="#98E4FF" stop-opacity="0.44"/>
<stop offset="0.0001" stop-color="#98E4FF"/>
<stop offset="0.485373" stop-color="#80B3FF"/>
<stop offset="0.94" stop-color="#80B3FF"/>
<stop offset="1" stop-color="#687EFF"/>
</radialGradient>
</defs>
</svg>
